<?xml version="1.0" encoding="UTF-8" standalone="no"?>
<!DOCTYPE svg PUBLIC "-//W3C//DTD SVG 1.1//EN"
 "http://www.w3.org/Graphics/SVG/1.1/DTD/svg11.dtd">
<!-- Generated by graphviz version 2.43.0 (0)
 -->
<!-- Title: G Pages: 1 -->
<svg width="116pt" height="323pt"
 viewBox="0.00 0.00 116.00 323.00" xmlns="http://www.w3.org/2000/svg" xmlns:xlink="http://www.w3.org/1999/xlink">
<g id="graph0" class="graph" transform="scale(1 1) rotate(0) translate(4 319)">
<title>G</title>
<polygon fill="white" stroke="transparent" points="-4,4 -4,-319 112,-319 112,4 -4,4"/>
<g id="clust1" class="cluster">
<title>cluster_main</title>
<polygon fill="none" stroke="black" points="8,-8 8,-307 100,-307 100,-8 8,-8"/>
<text text-anchor="middle" x="54" y="-291.8" font-family="Times,serif" font-size="14.00">main</text>
</g>
<!-- n_main_2 -->
<g id="node1" class="node">
<title>n_main_2</title>
<polygon fill="none" stroke="black" points="81,-124 27,-124 27,-88 81,-88 81,-124"/>
<text text-anchor="middle" x="54" y="-102.3" font-family="Times,serif" font-size="14.00">nop</text>
<text text-anchor="middle" x="22" y="-127.8" font-family="Times,serif" font-size="14.00">2</text>
</g>
<!-- n_main_1 -->
<g id="node2" class="node">
<title>n_main_1</title>
<polygon fill="none" stroke="black" points="92,-52 16,-52 16,-16 92,-16 92,-52"/>
<text text-anchor="middle" x="54" y="-30.3" font-family="Times,serif" font-size="14.00">return 1</text>
<text text-anchor="middle" x="11" y="-55.8" font-family="Times,serif" font-size="14.00">1</text>
</g>
<!-- n_main_2&#45;&gt;n_main_1 -->
<g id="edge1" class="edge">
<title>n_main_2&#45;&gt;n_main_1</title>
<path fill="none" stroke="black" d="M54,-87.7C54,-79.98 54,-70.71 54,-62.11"/>
<polygon fill="black" stroke="black" points="57.5,-62.1 54,-52.1 50.5,-62.1 57.5,-62.1"/>
</g>
<!-- n_main_3 -->
<g id="node3" class="node">
<title>n_main_3</title>
<polygon fill="none" stroke="black" points="81,-196 27,-196 27,-160 81,-160 81,-196"/>
<text text-anchor="middle" x="54" y="-174.3" font-family="Times,serif" font-size="14.00">nop</text>
<text text-anchor="middle" x="22" y="-199.8" font-family="Times,serif" font-size="14.00">3</text>
</g>
<!-- n_main_3&#45;&gt;n_main_2 -->
<g id="edge2" class="edge">
<title>n_main_3&#45;&gt;n_main_2</title>
<path fill="none" stroke="black" d="M54,-159.7C54,-151.98 54,-142.71 54,-134.11"/>
<polygon fill="black" stroke="black" points="57.5,-134.1 54,-124.1 50.5,-134.1 57.5,-134.1"/>
</g>
<!-- n_main_4 -->
<g id="node4" class="node">
<title>n_main_4</title>
<polygon fill="none" stroke="black" points="81,-272 27,-272 27,-236 81,-236 81,-272"/>
<polygon fill="none" stroke="black" points="85,-276 23,-276 23,-232 85,-232 85,-276"/>
<text text-anchor="middle" x="54" y="-250.3" font-family="Times,serif" font-size="14.00">nop</text>
<text text-anchor="middle" x="18" y="-279.8" font-family="Times,serif" font-size="14.00">4</text>
</g>
<!-- n_main_4&#45;&gt;n_main_3 -->
<g id="edge3" class="edge">
<title>n_main_4&#45;&gt;n_main_3</title>
<path fill="none" stroke="black" d="M54,-231.99C54,-224.06 54,-214.91 54,-206.48"/>
<polygon fill="black" stroke="black" points="57.5,-206.31 54,-196.31 50.5,-206.31 57.5,-206.31"/>
</g>
</g>
</svg>
