<?xml version="1.0" encoding="UTF-8" standalone="no"?>
<!DOCTYPE svg PUBLIC "-//W3C//DTD SVG 1.1//EN"
 "http://www.w3.org/Graphics/SVG/1.1/DTD/svg11.dtd">
<!-- Generated by graphviz version 2.43.0 (0)
 -->
<!-- Title: G Pages: 1 -->
<svg width="168pt" height="323pt"
 viewBox="0.00 0.00 168.00 323.00" xmlns="http://www.w3.org/2000/svg" xmlns:xlink="http://www.w3.org/1999/xlink">
<g id="graph0" class="graph" transform="scale(1 1) rotate(0) translate(4 319)">
<title>G</title>
<polygon fill="white" stroke="transparent" points="-4,4 -4,-319 164,-319 164,4 -4,4"/>
<g id="clust1" class="cluster">
<title>cluster_main</title>
<polygon fill="none" stroke="black" points="8,-8 8,-307 152,-307 152,-8 8,-8"/>
<text text-anchor="middle" x="80" y="-291.8" font-family="Times,serif" font-size="14.00">main</text>
</g>
<!-- n_main_2 -->
<g id="node1" class="node">
<title>n_main_2</title>
<polygon fill="none" stroke="black" points="144,-124 16,-124 16,-88 144,-88 144,-124"/>
<text text-anchor="middle" x="80" y="-102.3" font-family="Times,serif" font-size="14.00">z = ((4 * x) + y)</text>
<text text-anchor="middle" x="11" y="-127.8" font-family="Times,serif" font-size="14.00">2</text>
</g>
<!-- n_main_1 -->
<g id="node2" class="node">
<title>n_main_1</title>
<polygon fill="none" stroke="black" points="118,-52 42,-52 42,-16 118,-16 118,-52"/>
<text text-anchor="middle" x="80" y="-30.3" font-family="Times,serif" font-size="14.00">return 1</text>
<text text-anchor="middle" x="37" y="-55.8" font-family="Times,serif" font-size="14.00">1</text>
</g>
<!-- n_main_2&#45;&gt;n_main_1 -->
<g id="edge1" class="edge">
<title>n_main_2&#45;&gt;n_main_1</title>
<path fill="none" stroke="black" d="M80,-87.7C80,-79.98 80,-70.71 80,-62.11"/>
<polygon fill="black" stroke="black" points="83.5,-62.1 80,-52.1 76.5,-62.1 83.5,-62.1"/>
</g>
<!-- n_main_3 -->
<g id="node3" class="node">
<title>n_main_3</title>
<polygon fill="none" stroke="black" points="112,-196 48,-196 48,-160 112,-160 112,-196"/>
<text text-anchor="middle" x="80" y="-174.3" font-family="Times,serif" font-size="14.00">y = 15</text>
<text text-anchor="middle" x="43" y="-199.8" font-family="Times,serif" font-size="14.00">3</text>
</g>
<!-- n_main_3&#45;&gt;n_main_2 -->
<g id="edge2" class="edge">
<title>n_main_3&#45;&gt;n_main_2</title>
<path fill="none" stroke="black" d="M80,-159.7C80,-151.98 80,-142.71 80,-134.11"/>
<polygon fill="black" stroke="black" points="83.5,-134.1 80,-124.1 76.5,-134.1 83.5,-134.1"/>
</g>
<!-- n_main_4 -->
<g id="node4" class="node">
<title>n_main_4</title>
<polygon fill="none" stroke="black" points="107.5,-272 52.5,-272 52.5,-236 107.5,-236 107.5,-272"/>
<polygon fill="none" stroke="black" points="111.5,-276 48.5,-276 48.5,-232 111.5,-232 111.5,-276"/>
<text text-anchor="middle" x="80" y="-250.3" font-family="Times,serif" font-size="14.00">x = 8</text>
<text text-anchor="middle" x="43.5" y="-279.8" font-family="Times,serif" font-size="14.00">4</text>
</g>
<!-- n_main_4&#45;&gt;n_main_3 -->
<g id="edge3" class="edge">
<title>n_main_4&#45;&gt;n_main_3</title>
<path fill="none" stroke="black" d="M80,-231.99C80,-224.06 80,-214.91 80,-206.48"/>
<polygon fill="black" stroke="black" points="83.5,-206.31 80,-196.31 76.5,-206.31 83.5,-206.31"/>
</g>
</g>
</svg>
